<svg height="457pt" viewBox="-52 0 457 457.14286" width="457pt" xmlns="http://www.w3.org/2000/svg"><path d="m350.75 103.304688-100.714844-100.625c-1.714844-1.714844-4.042968-2.679688-6.464844-2.679688h-234.355468c-5.054688 0-9.1445315 4.089844-9.1445315 9.144531v438.855469c0 5.054688 4.0898435 9.144531 9.1445315 9.144531h335.070312c5.054688 0 9.144532-4.089843 9.144532-9.144531v-338.230469c0-2.429687-.964844-4.75-2.679688-6.464843zm-98.035156-72.101563 69.476562 69.414063h-69.476562zm-234.359375 407.652344v-420.570313h216.074219v91.472656c0 5.054688 4.089843 9.144532 9.140624 9.144532h91.574219v319.953125zm0 0"/><path d="m299.5625 154.597656h-245.625c-5.054688 0-9.144531 4.089844-9.144531 9.144532 0 5.050781 4.089843 9.140624 9.144531 9.140624h245.625c5.054688 0 9.144531-4.089843 9.144531-9.140624 0-5.054688-4.089843-9.144532-9.144531-9.144532zm0 0"/><path d="m299.5625 212.167969h-245.625c-5.054688 0-9.144531 4.089843-9.144531 9.144531s4.089843 9.144531 9.144531 9.144531h245.625c5.054688 0 9.144531-4.089843 9.144531-9.144531s-4.089843-9.144531-9.144531-9.144531zm0 0"/><path d="m299.5625 269.742188h-245.625c-5.054688 0-9.144531 4.089843-9.144531 9.140624 0 5.054688 4.089843 9.144532 9.144531 9.144532h245.625c5.054688 0 9.144531-4.089844 9.144531-9.144532 0-5.050781-4.089843-9.140624-9.144531-9.140624zm0 0"/><path d="m299.5625 327.3125h-245.625c-5.054688 0-9.144531 4.089844-9.144531 9.144531 0 5.050781 4.089843 9.140625 9.144531 9.140625h245.625c5.054688 0 9.144531-4.089844 9.144531-9.140625 0-5.054687-4.089843-9.144531-9.144531-9.144531zm0 0"/><path d="m299.5625 384.882812h-245.625c-5.054688 0-9.144531 4.089844-9.144531 9.144532 0 5.054687 4.089843 9.140625 9.144531 9.140625h245.625c5.054688 0 9.144531-4.085938 9.144531-9.140625 0-5.054688-4.089843-9.144532-9.144531-9.144532zm0 0"/><path d="m101.238281 109.761719c7.839844 0 13.988281-1.933594 16.761719-3.375l-1.808594-7.964844c-3.011718 1.324219-6.992187 2.898437-13.023437 2.898437-11.574219 0-20.261719-8.316406-20.261719-21.828124 0-12.175782 7.238281-22.0625 20.625-22.0625 5.789062 0 9.765625 1.324218 12.296875 2.769531l2.410156-8.199219c-2.890625-1.441406-8.4375-3.011719-14.707031-3.011719-19.050781 0-31.355469 13.015625-31.355469 30.984375 0 17.851563 11.457031 29.789063 29.0625 29.789063zm0 0"/><path d="m157.699219 108.554688 22.914062-58.359376h-11.097656l-11.332031 32.792969c-1.929688 5.3125-3.621094 10.132813-4.945313 14.953125h-.359375c-1.207031-4.820312-2.773437-9.640625-4.703125-14.953125l-11.457031-32.792969h-11.335938l22.191407 58.359376zm0 0"/></svg>